<?xml version="1.0" standalone="no"?><!DOCTYPE svg PUBLIC "-//W3C//DTD SVG 1.1//EN" "http://www.w3.org/Graphics/SVG/1.1/DTD/svg11.dtd"><svg t="1633530431499" class="icon" viewBox="0 0 1024 1024" version="1.1" xmlns="http://www.w3.org/2000/svg" p-id="1304" xmlns:xlink="http://www.w3.org/1999/xlink" width="32" height="32"><defs><style type="text/css"></style></defs><path d="M530.6 134.6l-0.2 0.2c-25.7 19.1-41 41.9-45.6 68.3-8.4-4.2-17.6-8.1-27.6-11.3h0.1c-1.5-0.6-3-1.1-4.5-1.5-1.1-17.7-1.9-30.8-2.4-39.4l-0.1-0.1c-1.9-24-9-41.7-21-53.2C416.9 85.2 401.8 79 384.1 79c-17.7 0-32.6 6.2-45.1 18.6-12.5 12.5-18.8 27.5-18.8 45.2 0 14.7 4.4 27.7 13.2 38.8-24.2 6.8-42 20.4-53.8 40.9l-0.1 0.2c-2.3 3.9-4.2 7.9-5.8 12.1-24 2.7-44.8 14.3-62.5 34.6l-0.1 0.1c-18.9 21.9-33.1 53-42.7 93.5-0.1 0.1-0.1 0.1-0.1 0.2-2.9 12-4.2 22.5-3.8 31.6-35.3 54.5-52.9 115.8-52.9 183.8 0 73.7 20.6 139.4 62 197.3v-0.1c15.5 22 34.1 42.8 55.5 62.4l0.1 0.1c3.2 2.8 6.4 5.6 9.6 8.3 76.3 65.5 167.4 98.2 273.2 98.3 101.7-0.1 189.6-30.3 263.7-90.7 3.1-2.5 6.1-5 9.2-7.6 3.1-2.7 6.3-5.5 9.4-8.4h0.1c21.7-19.6 40.4-40.4 56.1-62.4h0.1c14.8-20.7 27-42.6 36.5-65.5 16.8-40.7 25.3-84.5 25.3-131.7 0.1-101.5-39.2-188-118-259.6v0.1c-13.8-12.7-28.2-24.2-43-34.5-1.1-0.7-2.2-1.6-3.3-2.3 12.7-14.8 21.3-28.9 25.6-42.3 2.9-9 3.9-17.7 2.9-26.1v-0.2c-2-28.7-19.2-51.5-51.2-68.6l-0.1-0.1c-28.5-15-60.3-25.6-95.2-31.6h-0.1c-37.9-6.6-71.1 0.5-99.4 21.2z m17.6 24.3s0.1 0 0.2-0.1c21.8-15.7 47.4-20.9 76.5-15.9 31.7 5.5 60.5 15 86.5 28.7l-0.1-0.1c12.9 6.9 22.3 15.1 28.3 24.6 3.8 6.2 6.3 12.9 7.1 20.3 0.3 16.8-10.4 36-32 57.7l-0.2 0.2c-0.1 0-0.1 0.1-0.2 0.1l-0.2 0.3-0.2 0.2c-3.2 3.1-6.6 6.3-10.2 9.5-4.5 4-8.9 7.5-13.4 10.7-8.2 5.8-16.4 10.3-24.8 13.5-1.1-25.1-11.8-48.1-31.9-69-0.1-0.1-0.1-0.1-0.2-0.1-0.4-0.4-0.8-0.9-1.2-1.3-5.8-5.8-11.9-10.4-18.4-13.9-0.4-0.3-0.9-0.5-1.4-0.8-11.5-5.8-23.7-8.1-36.9-6.7-0.6 0-1.3 0.1-1.9 0.2-7.8 0.9-15.9 3.3-24.4 6.9-3.5 1.5-7.1 3.4-10.8 5.4-7.5 4.1-15.1 8.2-22.8 12.1-1.2-4.2-2-8.5-2.4-12.8v-0.7c-0.1-0.5-0.1-1-0.1-1.4v-0.1c-0.2-3.6-0.2-7.2 0.3-11v-0.1c2.3-21.9 13.9-40.7 34.8-56.4z m-188-40c6.6-6.6 14.6-9.9 23.9-9.9 9.3 0 17.3 3.3 24 9.9 3.7 4 6.6 9 8.7 15.2 1.8 5.5 3 11.8 3.6 19.1v-0.2c0.7 9.9 1.7 26.1 3 48.4-0.1 0.6 0 1.4 0 2 0.5 9.1 1 19.2 1.7 30.4 0.7 13.1 1.5 27.7 2.3 43.7-4.5 1.9-8.7 3.9-12.6 5.9-2.7 1.4-5.2 2.9-7.6 4.3-2.3 1.3-4.4 2.7-6.4 4.2-6.4 4.4-11.6 9.2-15.9 14.4-1.2-20.9-2.6-39.4-4.1-55.4-2.8-28-6-48.6-9.6-61.9-0.2-0.6-0.3-1.1-0.5-1.7-3.1-10.4-6.6-17.2-10.4-20.4l-0.1-0.1c-6.6-6.7-9.9-14.7-9.9-24 0-9.4 3.3-17.2 9.9-23.9zM455 232.1c-0.2-3.2-0.4-6.4-0.6-9.5 11.3 4.3 21.2 9.2 29.7 14.9 0.4 3.2 1.1 6.5 1.9 9.6 0.7 2.4 1.4 4.8 2.2 7.1-6.6 2.9-13.3 5.7-20.1 8.3-3.7 1.5-7.4 2.9-11.2 4.2-0.6-12.4-1.3-23.9-1.9-34.6z m-109.9-22.5c0.8 4.7 1.7 9.9 2.5 15.7 1.2 8.3 2.3 17.8 3.3 28.5 0.2 2.2 0.4 4.5 0.6 6.7-2.5-2.4-5.2-4.6-7.9-6.6v-0.1c-6.5-5-13.4-9-20.5-12.2-5.5-2.3-11-4.1-16.8-5.3 8.7-13.4 21.6-22.4 38.8-26.7z m-19.8 68h0.1c4.2 3.3 8.2 7.1 12.1 11.5l-0.1-0.1c1.7 2 3.3 3.9 4.7 6 12 16.4 18 35.7 17.9 57.8 0 24-6.7 43-20.2 56.9l0.2-0.2c-13.2 12.6-29.1 17.4-47.9 14.6h-0.1c-20.1-3.3-41.6-6.3-64.4-9.1-4.8-0.6-9.6-1.1-14.5-1.7h0.2c-10.7-1.3-16.9-6.7-18.4-16.3-0.1-0.1-0.1-0.3-0.2-0.5-0.7-7.1 0.3-15.9 2.8-26.2v-0.2c8.4-35 20.5-62.1 36.5-81.1l-0.1 0.1c14-16.1 30.7-24.3 50.3-24.9 0.6 0 1.2 0 1.8-0.1 14.6 0.2 27.7 4.7 39.3 13.5z m61.4 106.8c0.1-0.8 0.2-1.4 0.4-2.2 6.1 6.5 13.8 12.8 23.3 18.9l0.1 0.1c26.7 17.5 61.4 36.2 104.3 56.2 37.3 17.3 67.6 16.2 90.9-3.4 8.4-7.1 15.9-16.7 22.6-28.7v-0.1c17.4-31.4 28.7-59.3 34-83.8 0-0.1 0-0.1 0.1-0.1 12.1-3.1 24-8.2 35.9-15.3 8.5-5.3 16.9-11.6 25.3-19 1.1-1 2.1-1.9 3.1-2.9 1 0.7 2 1.4 3 2 15.4 10.5 30.2 22.2 44.5 35.3 10.2 9.2 19.7 18.8 28.6 28.7 53 59.5 79.6 129 79.6 208.6 0.1 67.2-18.7 127.1-56.3 179.9-14.5 20.2-31.8 39.4-51.8 57.5l-0.1 0.1c-3 2.6-5.9 5.2-8.9 7.8-70.6 60.7-155 91-253.3 91-58.9 0-112.9-10.9-162-32.7-32.8-14.6-63.3-34.1-91.6-58.4v0.1c-3.1-2.7-6.1-5.3-9.2-8l0.2 0.1c-19.8-18-36.9-37.2-51.4-57.5-37.7-52.8-56.5-112.7-56.4-179.9-0.1-54.2 12.2-103.7 36.8-148.6 7.4 7.1 17.8 11.4 31.2 13.1h0.2c27.8 3.2 53.6 6.7 77.4 10.6l0.2 0.1c22.9 3.5 43.2-0.5 60.7-12.3 4.4-3 8.6-6.5 12.7-10.4 0.1-0.1 0.1-0.2 0.3-0.2 12.7-12.5 21.2-28 25.6-46.6z m62-82.9c1.4-0.5 2.7-1 4.2-1.5 21-7.2 41.1-15.3 60.5-24.3l0.9-0.3c11.3-5.3 22.4-10.9 33.1-16.8 1.9-1 3.7-2 5.5-3h0.1c3.9-2.1 7.6-3.9 11.3-5.3 4.1-1.6 8.1-2.7 12-3.3 8.2 1.2 16.4 2.7 24.4 4.5 3.9 2.2 7.6 5.2 11.1 8.9l0.1 0.1c4.5 4.7 8.4 9.5 11.7 14.6 9.2 14.3 13 29.6 11.6 46.2v-0.1c-0.2 1.4-0.4 2.8-0.6 4.3-0.2 0.5-0.2 1-0.2 1.6-4 23.9-14.7 51.8-32.3 83.6-16.6 28.4-41.4 34.9-74.7 19.4-27.4-12.7-51.3-24.9-71.9-36.6-10.4-6-19.9-11.8-28.6-17.4v-0.1c-19.2-12.4-27.5-25.4-24.8-38.7 0.1-0.2 0.1-0.3 0.1-0.3 0.2-0.5 0.4-1 0.5-1.5 2.7-6.5 7.6-12.5 14.6-18 5.8-4.4 13-8.5 21.8-12.3 2.5-1 5.1-2.1 7.8-3.1 0.7-0.1 1.3-0.5 1.8-0.6z" fill="#626262" p-id="1305"></path><path d="M580.2 183.4c-0.1 0.1-0.2 0.1-0.3 0.1 0 0-0.1 0-0.1 0.1-15.6 11.6-25.8 25.1-30.6 40.4 8.5-3.6 16.6-6 24.4-6.9 0.6-0.1 1.3-0.2 1.9-0.2 13.2-1.4 25.4 0.9 36.9 6.7 0.5 0.3 1 0.5 1.4 0.8 6.5 3.5 12.6 8.1 18.4 13.9 3.9 1.2 7.7 2.7 11.5 4.7h0.1c0.6 0.3 1.1 0.5 1.6 0.9 7 3.7 13.6 8.8 19.9 15.3l0.1 0.1v0.1c0.1 0 0.2 0.1 0.4 0.2 10.8 11.3 19 23.1 24.5 35.6 4.5-3.2 8.9-6.7 13.4-10.7 3.6-3.2 7-6.4 10.2-9.5l0.2-0.2 0.2-0.3c0.1 0 0.1-0.1 0.2-0.1l0.2-0.2c21.6-21.7 32.3-40.9 32-57.7-0.8-7.4-3.3-14.1-7.1-20.3-25.6-13.4-54-22.8-85.2-28.2-28.3-4.9-53 0.1-74.2 15.4zM383.3 164.9c0 5.6 1.3 10.7 4 15.3 4.8 10 8.5 21.8 11 35.5 0.1 0.9 0.3 1.8 0.4 2.8l0.2 0.9c0.3 2.3 0.7 4.7 1 7.2l0.5 3.8c2.5 18.7 4.8 37.8 6.8 57.4 2.4-1.4 4.9-2.9 7.6-4.3 3.9-2 8.1-4 12.6-5.9-0.8-16-1.6-30.6-2.3-43.7-0.7-11.2-1.2-21.3-1.7-30.4 0-0.6-0.1-1.4 0-2-1.3-22.3-2.3-38.5-3-48.4v0.2c-0.6-7.3-1.8-13.6-3.6-19.1-0.9-0.1-1.8-0.1-2.7-0.1-8.3 0-15.5 2.9-21.4 8.6l-0.3 0.3s0 0.1-0.1 0.2c-6 5.9-9 13.2-9 21.7zM466.7 237.6c0.1 1.5 0.2 3.2 0.3 4.8v0.1c0.4 6.4 0.8 12.9 1.1 19.9 6.8-2.6 13.5-5.4 20.1-8.3-0.8-2.3-1.5-4.7-2.2-7.1-5.8-3.4-12.3-6.6-19.3-9.4zM347.6 225.4c-9.9 3.6-18.1 9-24.5 16.3 7.1 3.2 14 7.2 20.5 12.2v0.1c2.7 2 5.4 4.2 7.9 6.6-0.2-2.2-0.4-4.5-0.6-6.7-1-10.8-2.1-20.3-3.3-28.5zM316.2 289.1c-0.1 0-0.1 0 0 0-0.7 0.1-1.3 0.1-2 0.1-18.6 0.6-34.6 8.5-48 23.9-0.1 0.1-0.1 0.1-0.1 0.2-15.5 18.6-27.5 45-35.6 79.1 0 0.2 0 0.5-0.1 0.7-2 8.3-3 15.7-2.8 21.9 22.8 2.8 44.3 5.8 64.4 9.1h0.1c18.8 2.8 34.7-2 47.9-14.6l-0.2 0.2c13.5-13.9 20.2-32.9 20.2-56.9 0.1-22.1-5.9-41.4-17.9-57.8-8-3.9-16.6-5.7-25.9-5.9z" fill="#9BA4EB" p-id="1306"></path><path d="M239.1 471.1c-11.7-1.5-21.3-4.7-28.8-9.7-21.8 42.1-32.8 88.6-32.7 139.2-0.1 65.5 18.2 124.1 54.9 175.7 0.3 0.3 0.6 0.7 0.7 1.3 14.1 19.5 30.7 38.1 49.8 55.5v0.1c0.1 0 0.1 0.1 0.2 0.2v0.1h0.1c2.8 2.5 5.6 4.8 8.3 7.3 0.1 0 0.2 0.2 0.4 0.3 0.1 0 0.1 0 0.3 0.1 18.3 15.8 37.6 29.4 57.7 41C399.1 904 453.1 915 512 915c98.3 0 182.7-30.3 253.3-91 3-2.6 5.9-5.2 8.9-7.8l0.1-0.1c20-18.1 37.3-37.3 51.8-57.5 37.6-52.8 56.4-112.7 56.3-179.9 0-79.6-26.6-149.1-79.6-208.6-0.6-0.6-1.2-1.1-1.8-1.6-0.4-0.3-0.8-0.6-1.1-1-13.7-12.5-28-23.7-42.6-33.7l-0.2 0.2c-19.4 17-39.4 28.5-59.7 34.2-5.6 24-16.8 51.1-33.6 81.4v0.1s0 0.1-0.1 0.2c0 0.1 0 0.2-0.1 0.3-26.5 48.4-66.9 59.9-121.2 34.5-43.1-19.9-78-38.7-104.7-56.2-0.1-0.1-0.2-0.1-0.3-0.1l-0.3-0.3c-6.3-4.1-11.9-8.2-16.7-12.5-5 16.4-13.5 30.3-25.1 41.8-0.1 0-0.1 0-0.2 0.1 0 0-0.1 0.1-0.2 0.1-21.3 20.8-47.3 28.8-77.8 24.3h-0.5c-0.1 0-0.2 0-0.4-0.1-0.1-0.1-0.2-0.1-0.3-0.1-23.8-3.9-49.3-7.4-76.7-10.5h-0.1z" fill="#F3A3AF" p-id="1307"></path><path d="M435.1 359.9v0.1c-2 11.5 4.8 22.6 20.4 33.5 20.6 11.7 44.5 23.9 71.9 36.6 33.3 15.5 58.1 9 74.7-19.4 17.6-31.8 28.3-59.7 32.3-83.6 0-0.6 0-1.1 0.2-1.6 0.2-1.5 0.4-2.9 0.6-4.3v0.1c1.4-16.6-2.4-31.9-11.6-46.2-5.7-1.1-11.5-2.1-17.2-3-6.9 1.1-14.1 3.8-21.7 8-0.1 0-0.2 0.1-0.3 0.2v-0.1c-12.5 7-25.3 13.6-38.5 19.8-0.1 0-0.2 0-0.2 0.1-0.4 0.1-0.8 0.3-1 0.4-19.6 9-39.8 17.1-60.8 24.5h-0.3c-1.3 0.4-2.5 0.9-3.7 1.3-0.1 0.1-0.1 0.1-0.2 0.1-0.5 0.1-1.1 0.3-1.7 0.6-0.1 0-0.2 0-0.3 0.1-22.8 8.4-36.8 18.9-42.1 31.5-0.1 0-0.1 0-0.1 0.1-0.1 0.3-0.2 0.8-0.4 1.2z" fill="#9BA4EB" p-id="1308"></path><path d="M564.3 250.3c-3.7 1.4-7.4 3.2-11.3 5.3h-0.1c-1.8 1-3.6 2-5.5 3 0.1 0.2 0.1 0.4 0.2 0.5 5.6-3 11.2-5.8 16.7-8.8z" fill="#AFADD0" p-id="1309"></path><path d="M850.6 775.8h-0.1c-15.7 22-34.4 42.8-56.1 62.4h-0.1c-3.1 2.9-6.3 5.7-9.4 8.4-3.1 2.6-6.1 5.1-9.2 7.6 5.2-4 10.2-8.1 15.3-12.4l0.2-0.2 0.1-0.1c3-2.7 5.9-5.3 8.8-7.9h0.1l0.1-0.1c19.6-17.8 36.6-36.5 51-56.5 14.9-21 26.9-43.3 35.8-66.7-9.5 23-21.7 44.9-36.5 65.5z" fill="#F1BEAC" p-id="1310"></path></svg>